<?xml version="1.0" encoding="UTF-8"?>
<svg version="1.1" xmlns="http://www.w3.org/2000/svg" width="366" height="283">
<path d="M0 0 C2.03867947 -0.00960961 4.07630658 -0.04063893 6.11474609 -0.07226562 C17.99340608 -0.169549 29.06657464 1.67248357 40.07177734 6.24023438 C41.40669708 6.74553551 42.74266862 7.24806529 44.07958984 7.74804688 C53.90155844 11.55772286 62.47901092 16.15734488 71.07177734 22.24023438 C71.85552734 22.78035156 72.63927734 23.32046875 73.44677734 23.87695312 C78.50952991 27.57164571 82.93511871 31.90678713 87.38427734 36.30273438 C87.98369141 36.89272217 88.58310547 37.48270996 89.20068359 38.09057617 C92.65602734 41.57169881 95.46422133 45.05668296 98.07177734 49.24023438 C98.58998047 49.98402344 99.10818359 50.7278125 99.64208984 51.49414062 C103.80747483 57.67942335 107.10676377 64.14565632 110.32177734 70.86523438 C110.74604004 71.74767822 111.17030273 72.63012207 111.60742188 73.53930664 C114.1756477 78.99946282 116.31125285 84.46845498 118.07177734 90.24023438 C123.00044207 89.03812103 125.74573698 86.96090448 129.39208984 83.63867188 C131.45345506 81.92246549 133.5142275 81.01524948 136.07177734 80.24023438 C136.07177734 79.58023438 136.07177734 78.92023438 136.07177734 78.24023438 C137.06177734 78.24023438 138.05177734 78.24023438 139.07177734 78.24023438 C139.07177734 77.58023438 139.07177734 76.92023438 139.07177734 76.24023438 C140.51941996 74.94981524 142.03266883 73.73256304 143.57177734 72.55273438 C147.6972422 69.34729506 151.63026806 66.02260355 155.47802734 62.49023438 C157.07177734 61.24023438 157.07177734 61.24023438 159.07177734 61.24023438 C159.44302734 60.37398437 159.44302734 60.37398437 159.82177734 59.49023438 C161.26571434 56.89114779 162.80699722 55.161866 165.07177734 53.24023438 C166.06177734 53.24023438 167.05177734 53.24023438 168.07177734 53.24023438 C166.65185184 56.47072186 164.93558348 58.62265925 162.43896484 61.10351562 C161.71451172 61.82603516 160.99005859 62.54855469 160.24365234 63.29296875 C159.48568359 64.03869141 158.72771484 64.78441406 157.94677734 65.55273438 C157.21201172 66.28685547 156.47724609 67.02097656 155.72021484 67.77734375 C149.57798862 73.87090797 143.5475566 79.83144148 136.07177734 84.24023438 C134.25331645 85.80354374 132.47635811 87.40022828 130.72021484 89.03320312 C129.07177734 90.24023438 129.07177734 90.24023438 126.07177734 90.24023438 C125.82427734 90.85898438 125.57677734 91.47773437 125.32177734 92.11523438 C123.86549095 94.59092124 122.69365228 95.1914844 120.07177734 96.24023438 C120.05115234 97.49835938 120.03052734 98.75648437 120.00927734 100.05273438 C119.991875 101.11427734 119.991875 101.11427734 119.97412109 102.19726562 C119.98914517 104.44328899 119.98914517 104.44328899 121.07177734 107.24023438 C122.17340941 123.41419613 121.51669014 139.85934931 116.07177734 155.24023438 C115.64380859 156.46097656 115.21583984 157.68171875 114.77490234 158.93945312 C110.80977237 169.92434187 105.99470695 179.7649753 99.27099609 189.36523438 C97.90510717 191.33231993 97.90510717 191.33231993 97.07177734 194.24023438 C95.07177734 195.90690104 93.07177734 197.57356771 91.07177734 199.24023438 C90.74177734 200.23023438 90.41177734 201.22023437 90.07177734 202.24023438 C89.41177734 202.24023438 88.75177734 202.24023438 88.07177734 202.24023438 C87.83458984 202.82289063 87.59740234 203.40554687 87.35302734 204.00585938 C85.79316833 206.72610132 84.05841124 208.08591348 81.57177734 209.99023438 C78.81976313 212.11083407 76.08982609 214.22499321 73.43505859 216.46679688 C68.74929393 220.4134593 65.16178743 223.18110219 59.07177734 224.24023438 C59.07177734 224.90023437 59.07177734 225.56023437 59.07177734 226.24023438 C30.64197718 238.63199835 2.95604404 245.09735509 -27.92822266 237.24023438 C-29.07806641 236.97339844 -30.22791016 236.7065625 -31.41259766 236.43164062 C-54.77712783 230.48478622 -77.14933541 216.40406619 -91.92822266 197.24023438 C-91.92822266 196.58023438 -91.92822266 195.92023438 -91.92822266 195.24023438 C-92.91822266 194.91023437 -93.90822266 194.58023438 -94.92822266 194.24023438 C-96.00282176 192.13169668 -97.03849991 190.00323161 -98.05322266 187.86523438 C-99.79297426 184.65689482 -101.39743775 181.9409795 -104.80126953 180.3828125 C-109.1115652 179.21316419 -113.52426638 178.82321948 -117.96337891 178.44091797 C-127.45542994 177.47142667 -138.03792975 172.88977001 -144.42822266 165.74023438 C-149.56557237 159.34987254 -150.48110124 153.65358735 -150.42822266 145.67773438 C-150.42322754 144.69699951 -150.41823242 143.71626465 -150.41308594 142.70581055 C-150.21841416 134.57322918 -148.75203711 128.48850929 -144.92822266 121.24023438 C-144.42419922 120.221875 -143.92017578 119.20351562 -143.40087891 118.15429688 C-141.03203319 113.56126778 -138.86711696 109.67190687 -134.92822266 106.24023438 C-134.26822266 106.24023438 -133.60822266 106.24023438 -132.92822266 106.24023438 C-132.90244141 107.35140625 -132.87666016 108.46257812 -132.85009766 109.60742188 C-132.41778689 122.50275894 -130.68355488 132.00548833 -120.92822266 141.24023438 C-119.44322266 142.23023438 -119.44322266 142.23023438 -117.92822266 143.24023438 C-117.71851706 139.09929739 -117.71851706 139.09929739 -118.92822266 135.24023438 C-119.14117367 131.10290043 -119.11401457 126.96367122 -119.11352539 122.82128906 C-119.11568508 120.77582133 -119.13376502 118.73091718 -119.15283203 116.68554688 C-119.16375502 109.27247981 -118.78631392 102.42450448 -116.92822266 95.24023438 C-116.70521484 94.28632812 -116.48220703 93.33242187 -116.25244141 92.34960938 C-111.28357153 73.93735536 -104.19954598 56.26793184 -90.92822266 42.24023438 C-90.31382324 41.58490723 -89.69942383 40.92958008 -89.06640625 40.25439453 C-80.71415922 31.42397296 -72.59650085 23.22051918 -61.92822266 17.24023438 C-61.33267578 16.9020166 -60.73712891 16.56379883 -60.12353516 16.21533203 C-41.09076942 5.47055893 -21.92212725 0.06220514 0 0 Z " fill="#A5A0CA" transform="translate(176.92822265625,17.759765625)"/>
<path d="M0 0 C-1.4199255 3.23048748 -3.13619387 5.38242488 -5.6328125 7.86328125 C-6.35726563 8.58580078 -7.08171875 9.30832031 -7.828125 10.05273438 C-8.58609375 10.79845703 -9.3440625 11.54417969 -10.125 12.3125 C-10.85976563 13.04662109 -11.59453125 13.78074219 -12.3515625 14.53710938 C-18.49378873 20.6306736 -24.52422074 26.59120711 -32 31 C-33.8184609 32.56330937 -35.59541924 34.15999391 -37.3515625 35.79296875 C-39 37 -39 37 -42 37 C-42.37125 37.928125 -42.37125 37.928125 -42.75 38.875 C-44.20628639 41.35068687 -45.37812506 41.95125002 -48 43 C-48.020625 44.258125 -48.04125 45.51625 -48.0625 46.8125 C-48.07990234 47.87404297 -48.07990234 47.87404297 -48.09765625 48.95703125 C-48.08263217 51.20305461 -48.08263217 51.20305461 -47 54 C-45.89836793 70.17396176 -46.5550872 86.61911493 -52 102 C-52.64195312 103.83111328 -52.64195312 103.83111328 -53.296875 105.69921875 C-57.26200498 116.68410749 -62.07707039 126.52474093 -68.80078125 136.125 C-70.16667018 138.09208555 -70.16667018 138.09208555 -71 141 C-73 142.66666667 -75 144.33333333 -77 146 C-77.33 146.99 -77.66 147.98 -78 149 C-78.66 149 -79.32 149 -80 149 C-80.2371875 149.58265625 -80.474375 150.1653125 -80.71875 150.765625 C-82.27860902 153.48586694 -84.0133661 154.8456791 -86.5 156.75 C-89.25201422 158.8705997 -91.98195125 160.98475884 -94.63671875 163.2265625 C-99.32248342 167.17322493 -102.90998991 169.94086781 -109 171 C-109 171.66 -109 172.32 -109 173 C-137.42980016 185.39176398 -165.11573331 191.85712071 -196 184 C-197.14984375 183.73316406 -198.2996875 183.46632812 -199.484375 183.19140625 C-222.84890518 177.24455185 -245.22111275 163.16383182 -260 144 C-260 143.34 -260 142.68 -260 142 C-260.99 141.67 -261.98 141.34 -263 141 C-264.0745991 138.8914623 -265.11027725 136.76299724 -266.125 134.625 C-267.86475161 131.41666045 -269.4692151 128.70074512 -272.87304688 127.14257812 C-277.18334255 125.97292982 -281.59604372 125.5829851 -286.03515625 125.20068359 C-295.52720728 124.2311923 -306.10970709 119.64953563 -312.5 112.5 C-317.63734971 106.10963816 -318.55287858 100.41335297 -318.5 92.4375 C-318.49500488 91.45676514 -318.49000977 90.47603027 -318.48486328 89.46557617 C-318.2901915 81.33299481 -316.82381445 75.24827492 -313 68 C-312.49597656 66.98164063 -311.99195313 65.96328125 -311.47265625 64.9140625 C-309.10381054 60.32103341 -306.9388943 56.4316725 -303 53 C-302.34 53 -301.68 53 -301 53 C-300.97421875 54.11117187 -300.9484375 55.22234375 -300.921875 56.3671875 C-300.48956423 69.26252457 -298.75533222 78.76525395 -289 88 C-286.1315587 90.10232344 -286.1315587 90.10232344 -283 91 C-282.566875 92.2375 -282.566875 92.2375 -282.125 93.5 C-281.75375 94.325 -281.3825 95.15 -281 96 C-278.45224694 96.89386164 -278.45224694 96.89386164 -276 97 C-276 97.66 -276 98.32 -276 99 C-274.515 99.185625 -274.515 99.185625 -273 99.375 C-270.32565969 99.74866032 -267.94379944 100.28642727 -265.3125 101 C-255.82832701 103.44716338 -245.72676431 103.15965593 -236 103.125 C-234.37191406 103.13080078 -234.37191406 103.13080078 -232.7109375 103.13671875 C-220.18170991 103.35454473 -220.18170991 103.35454473 -208 101 C-205.60708854 100.79562322 -203.21034394 100.63468331 -200.8125 100.5 C-195.50689999 100.18438024 -190.26263169 99.75180453 -185 99 C-185 98.34 -185 97.68 -185 97 C-179.61972975 95.80911014 -174.54708616 94.7080481 -169 95 C-168.67 94.01 -168.34 93.02 -168 92 C-167.35675781 91.90203125 -166.71351563 91.8040625 -166.05078125 91.703125 C-155.03473265 89.88021254 -144.86525927 86.50362379 -134.6328125 82.08203125 C-132 81 -132 81 -128.5 80.0625 C-123.99145142 78.69383347 -120.04494192 76.53743588 -115.86328125 74.38671875 C-112.64346855 72.82732788 -109.4616012 71.88236893 -106 71 C-101.31073693 69.33219994 -101.31073693 69.33219994 -97.375 66.375 C-95.47109426 64.47109426 -93.59878327 64.51975665 -91 64 C-89.97803008 63.02246356 -88.98020375 62.0194119 -88 61 C-87.030625 60.54625 -86.06125 60.0925 -85.0625 59.625 C-81.88961179 58.20109776 -81.88961179 58.20109776 -80 55.5 C-77.05309984 51.8163748 -73.76931186 50.35386237 -69.1875 49.4375 C-68.465625 49.293125 -67.74375 49.14875 -67 49 C-66.67 48.34 -66.34 47.68 -66 47 C-65.01 46.67 -64.02 46.34 -63 46 C-62.34 45.01 -61.68 44.02 -61 43 C-59.68 43 -58.36 43 -57 43 C-57 41.68 -57 40.36 -57 39 C-56.34 39 -55.68 39 -55 39 C-55.13277344 38.43152344 -55.26554687 37.86304688 -55.40234375 37.27734375 C-56.2353851 33.63506807 -56.9892106 30.08939787 -57.4375 26.375 C-57.90813049 23.55121706 -58.45443278 21.78181507 -59.625 19.25 C-61 16 -61 16 -60 13 C-56.21025857 20.88058561 -52.50584108 28.59806226 -50 37 C-45.07133527 35.79788665 -42.32604036 33.72067011 -38.6796875 30.3984375 C-36.61832229 28.68223111 -34.55754985 27.77501511 -32 27 C-32 26.34 -32 25.68 -32 25 C-31.01 25 -30.02 25 -29 25 C-29 24.34 -29 23.68 -29 23 C-27.55235738 21.70958086 -26.03910851 20.49232866 -24.5 19.3125 C-20.37453515 16.10706069 -16.44150928 12.78236918 -12.59375 9.25 C-11 8 -11 8 -9 8 C-8.7525 7.4225 -8.505 6.845 -8.25 6.25 C-6.15415198 2.47747356 -4.46699396 0 0 0 Z " fill="#5957A3" transform="translate(345,71)"/>
<path d="M0 0 C-1.4199255 3.23048748 -3.13619387 5.38242488 -5.6328125 7.86328125 C-6.35726563 8.58580078 -7.08171875 9.30832031 -7.828125 10.05273438 C-8.58609375 10.79845703 -9.3440625 11.54417969 -10.125 12.3125 C-10.85976563 13.04662109 -11.59453125 13.78074219 -12.3515625 14.53710938 C-18.49378873 20.6306736 -24.52422074 26.59120711 -32 31 C-33.8184609 32.56330937 -35.59541924 34.15999391 -37.3515625 35.79296875 C-39 37 -39 37 -42 37 C-42.21914063 37.58523437 -42.43828125 38.17046875 -42.6640625 38.7734375 C-44.42643071 41.71071785 -46.46096885 42.85158158 -49.375 44.625 C-50.33148438 45.21539062 -51.28796875 45.80578125 -52.2734375 46.4140625 C-54.48590841 47.70097252 -56.69276661 48.8955897 -59 50 C-59 50.66 -59 51.32 -59 52 C-62.72965139 54.03435531 -64.66905042 55 -69 55 C-69.03480469 55.58652344 -69.06960938 56.17304687 -69.10546875 56.77734375 C-70.49848014 60.23858165 -73.04233671 60.93651225 -76.3125 62.5625 C-80.15204049 64.49301924 -83.59617351 66.38943816 -87 69 C-92.75319278 72.09110358 -98.59377861 73.84900041 -105 75 C-105 75.66 -105 76.32 -105 77 C-106.03125 77.5775 -107.0625 78.155 -108.125 78.75 C-110.53442538 80.11437341 -112.73078416 81.51763878 -115 83.125 C-118.31318492 85.19574058 -121.23780894 85.9797448 -125 87 C-127.35512848 88.01439591 -129.67182421 89.08755215 -131.984375 90.1953125 C-134 91 -134 91 -137 91 C-137 91.66 -137 92.32 -137 93 C-138.91149668 94.0098473 -140.82941569 95.00754495 -142.75 96 C-143.81734375 96.556875 -144.8846875 97.11375 -145.984375 97.6875 C-149 99 -149 99 -153 99 C-153 99.66 -153 100.32 -153 101 C-163.37357631 105.59225513 -163.37357631 105.59225513 -169 105 C-169 105.66 -169 106.32 -169 107 C-170.72856459 107.4813341 -172.45788071 107.95996971 -174.1875 108.4375 C-175.15042969 108.70433594 -176.11335937 108.97117187 -177.10546875 109.24609375 C-179.72663697 109.92880018 -182.338935 110.49892195 -185 111 C-185 111.66 -185 112.32 -185 113 C-185.85271484 113.05607422 -185.85271484 113.05607422 -186.72265625 113.11328125 C-192.0560251 113.56737442 -196.09762064 114.73037992 -201 117 C-205.14005136 118.35622372 -208.63649456 119.26445487 -213 119 C-213 119.66 -213 120.32 -213 121 C-213.88042969 121.12117188 -214.76085937 121.24234375 -215.66796875 121.3671875 C-216.82941406 121.53476563 -217.99085938 121.70234375 -219.1875 121.875 C-220.33605469 122.03742188 -221.48460937 122.19984375 -222.66796875 122.3671875 C-225.91227535 122.86954326 -225.91227535 122.86954326 -228.46484375 124.00390625 C-231.71418488 125.28061193 -234.93070921 125.68583171 -238.375 126.0625 C-239.10396484 126.14266357 -239.83292969 126.22282715 -240.58398438 126.30541992 C-256.76753405 127.97127448 -272.09602699 128.88533543 -288 125 C-289.42505859 124.67322266 -289.42505859 124.67322266 -290.87890625 124.33984375 C-302.01816061 121.42864582 -310.46874215 116.13455263 -316.625 106.44140625 C-318.511209 101.72052521 -318.53342634 97.47930566 -318.5 92.4375 C-318.49500488 91.45676514 -318.49000977 90.47603027 -318.48486328 89.46557617 C-318.2901915 81.33299481 -316.82381445 75.24827492 -313 68 C-312.49597656 66.98164063 -311.99195313 65.96328125 -311.47265625 64.9140625 C-309.10381054 60.32103341 -306.9388943 56.4316725 -303 53 C-302.34 53 -301.68 53 -301 53 C-300.97421875 54.11117187 -300.9484375 55.22234375 -300.921875 56.3671875 C-300.48956423 69.26252457 -298.75533222 78.76525395 -289 88 C-286.1315587 90.10232344 -286.1315587 90.10232344 -283 91 C-282.566875 92.2375 -282.566875 92.2375 -282.125 93.5 C-281.75375 94.325 -281.3825 95.15 -281 96 C-278.45224694 96.89386164 -278.45224694 96.89386164 -276 97 C-276 97.66 -276 98.32 -276 99 C-274.515 99.185625 -274.515 99.185625 -273 99.375 C-270.32565969 99.74866032 -267.94379944 100.28642727 -265.3125 101 C-255.82832701 103.44716338 -245.72676431 103.15965593 -236 103.125 C-234.37191406 103.13080078 -234.37191406 103.13080078 -232.7109375 103.13671875 C-220.18170991 103.35454473 -220.18170991 103.35454473 -208 101 C-205.60708854 100.79562322 -203.21034394 100.63468331 -200.8125 100.5 C-195.50689999 100.18438024 -190.26263169 99.75180453 -185 99 C-185 98.34 -185 97.68 -185 97 C-179.61972975 95.80911014 -174.54708616 94.7080481 -169 95 C-168.67 94.01 -168.34 93.02 -168 92 C-167.35675781 91.90203125 -166.71351563 91.8040625 -166.05078125 91.703125 C-155.03473265 89.88021254 -144.86525927 86.50362379 -134.6328125 82.08203125 C-132 81 -132 81 -128.5 80.0625 C-123.99145142 78.69383347 -120.04494192 76.53743588 -115.86328125 74.38671875 C-112.64346855 72.82732788 -109.4616012 71.88236893 -106 71 C-101.31073693 69.33219994 -101.31073693 69.33219994 -97.375 66.375 C-95.47109426 64.47109426 -93.59878327 64.51975665 -91 64 C-89.97803008 63.02246356 -88.98020375 62.0194119 -88 61 C-87.030625 60.54625 -86.06125 60.0925 -85.0625 59.625 C-81.88961179 58.20109776 -81.88961179 58.20109776 -80 55.5 C-77.05309984 51.8163748 -73.76931186 50.35386237 -69.1875 49.4375 C-68.465625 49.293125 -67.74375 49.14875 -67 49 C-66.67 48.34 -66.34 47.68 -66 47 C-65.01 46.67 -64.02 46.34 -63 46 C-62.34 45.01 -61.68 44.02 -61 43 C-59.68 43 -58.36 43 -57 43 C-57 41.68 -57 40.36 -57 39 C-56.34 39 -55.68 39 -55 39 C-55.13277344 38.43152344 -55.26554687 37.86304688 -55.40234375 37.27734375 C-56.2353851 33.63506807 -56.9892106 30.08939787 -57.4375 26.375 C-57.90813049 23.55121706 -58.45443278 21.78181507 -59.625 19.25 C-61 16 -61 16 -60 13 C-56.21025857 20.88058561 -52.50584108 28.59806226 -50 37 C-45.07133527 35.79788665 -42.32604036 33.72067011 -38.6796875 30.3984375 C-36.61832229 28.68223111 -34.55754985 27.77501511 -32 27 C-32 26.34 -32 25.68 -32 25 C-31.01 25 -30.02 25 -29 25 C-29 24.34 -29 23.68 -29 23 C-27.55235738 21.70958086 -26.03910851 20.49232866 -24.5 19.3125 C-20.37453515 16.10706069 -16.44150928 12.78236918 -12.59375 9.25 C-11 8 -11 8 -9 8 C-8.7525 7.4225 -8.505 6.845 -8.25 6.25 C-6.15415198 2.47747356 -4.46699396 0 0 0 Z " fill="#3BB14B" transform="translate(345,71)"/>
<path d="M0 0 C-1.4199255 3.23048748 -3.13619387 5.38242488 -5.6328125 7.86328125 C-6.35726562 8.58580078 -7.08171875 9.30832031 -7.828125 10.05273438 C-8.96507812 11.17131836 -8.96507812 11.17131836 -10.125 12.3125 C-10.85976563 13.04662109 -11.59453125 13.78074219 -12.3515625 14.53710938 C-18.49378873 20.6306736 -24.52422074 26.59120711 -32 31 C-33.8184609 32.56330937 -35.59541924 34.15999391 -37.3515625 35.79296875 C-39 37 -39 37 -42 37 C-42.32871094 37.87785156 -42.32871094 37.87785156 -42.6640625 38.7734375 C-44.42643071 41.71071785 -46.46096885 42.85158158 -49.375 44.625 C-50.33148438 45.21539062 -51.28796875 45.80578125 -52.2734375 46.4140625 C-54.48590841 47.70097252 -56.69276661 48.8955897 -59 50 C-59 50.66 -59 51.32 -59 52 C-62.72965139 54.03435531 -64.66905042 55 -69 55 C-69.03480469 55.58652344 -69.06960938 56.17304687 -69.10546875 56.77734375 C-70.49848014 60.23858165 -73.04233671 60.93651225 -76.3125 62.5625 C-80.1528657 64.49343415 -83.58719993 66.40119382 -87 69 C-88.98014432 69.72351427 -90.97821315 70.40265389 -93 71 C-90.18067616 67.8423573 -87.3452426 66.00000244 -83.68359375 64.015625 C-81.43474152 62.6590088 -79.74167346 60.95067427 -78 59 C-78.5775 59.350625 -79.155 59.70125 -79.75 60.0625 C-82.35801776 61.14917407 -83.39417629 60.93065133 -86 60 C-85.4225 59.773125 -84.845 59.54625 -84.25 59.3125 C-81.82197954 58.08585578 -81.82197954 58.08585578 -80.125 55.5625 C-77.07894666 51.88931803 -73.83433831 50.36686766 -69.1875 49.4375 C-68.465625 49.293125 -67.74375 49.14875 -67 49 C-66.67 48.34 -66.34 47.68 -66 47 C-64.515 46.505 -64.515 46.505 -63 46 C-62.34 45.01 -61.68 44.02 -61 43 C-59.68 43 -58.36 43 -57 43 C-57 41.68 -57 40.36 -57 39 C-56.34 39 -55.68 39 -55 39 C-55.13277344 38.43152344 -55.26554687 37.86304688 -55.40234375 37.27734375 C-56.2353851 33.63506807 -56.9892106 30.08939787 -57.4375 26.375 C-57.90813049 23.55121706 -58.45443278 21.78181507 -59.625 19.25 C-61 16 -61 16 -60 13 C-56.21025857 20.88058561 -52.50584108 28.59806226 -50 37 C-45.07133527 35.79788665 -42.32604036 33.72067011 -38.6796875 30.3984375 C-36.61832229 28.68223111 -34.55754985 27.77501511 -32 27 C-32 26.34 -32 25.68 -32 25 C-31.01 25 -30.02 25 -29 25 C-29 24.34 -29 23.68 -29 23 C-27.55235738 21.70958086 -26.03910851 20.49232866 -24.5 19.3125 C-20.37453515 16.10706069 -16.44150928 12.78236918 -12.59375 9.25 C-11 8 -11 8 -9 8 C-8.7525 7.4225 -8.505 6.845 -8.25 6.25 C-6.15415198 2.47747356 -4.46699396 0 0 0 Z " fill="#3F9349" transform="translate(345,71)"/>
<path d="M0 0 C-1.70811276 5.12433828 -6.53456384 7.2529149 -11.1875 9.625 C-12.115625 10.07875 -13.04375 10.5325 -14 11 C-14.598125 11.515625 -15.19625 12.03125 -15.8125 12.5625 C-19.21904045 14.80108372 -23.03066368 15.27907353 -27 16 C-27 16.66 -27 17.32 -27 18 C-28.03125 18.5775 -29.0625 19.155 -30.125 19.75 C-32.53442538 21.11437341 -34.73078416 22.51763878 -37 24.125 C-40.31318492 26.19574058 -43.23780894 26.9797448 -47 28 C-49.35463028 29.04955974 -51.67381592 30.14980753 -53.984375 31.29296875 C-56 32 -56 32 -59 31 C-59.474375 30.505 -59.94875 30.01 -60.4375 29.5 C-62.26761934 27.74308543 -63.56138873 27.5207712 -66 27 C-55.00126422 22.26819577 -55.00126422 22.26819577 -50.5 21.0625 C-45.99145142 19.69383347 -42.04494192 17.53743588 -37.86328125 15.38671875 C-34.64346855 13.82732788 -31.4616012 12.88236893 -28 12 C-23.31073693 10.33219994 -23.31073693 10.33219994 -19.375 7.375 C-17.47109426 5.47109426 -15.59878327 5.51975665 -13 5 C-12.54625 4.525625 -12.0925 4.05125 -11.625 3.5625 C-8.51154834 0.56879648 -4.19293582 0 0 0 Z " fill="#41AF50" transform="translate(267,130)"/>
<path d="M0 0 C0.66 0 1.32 0 2 0 C2.66 2.64 3.32 5.28 4 8 C5.175625 8.1546875 5.175625 8.1546875 6.375 8.3125 C9 9 9 9 11 12 C14.15961069 14.0311783 17.31388251 14.49734762 21 15 C21 15.66 21 16.32 21 17 C21.515625 16.79375 22.03125 16.5875 22.5625 16.375 C25 16 25 16 27.98071289 16.96435547 C32.86523166 18.4276284 37.68613589 18.24915609 42.74609375 18.1953125 C43.75720718 18.1924826 44.76832062 18.18965271 45.81007385 18.18673706 C49.01933952 18.17559889 52.22831958 18.15050597 55.4375 18.125 C57.62174074 18.11496198 59.80598589 18.10583757 61.99023438 18.09765625 C67.32691932 18.07568043 72.66343924 18.04226656 78 18 C65.28742624 26.47504917 35.64560253 21.79366985 21 19 C17.2873778 18.12819296 13.63434585 17.15498279 10 16 C10 15.34 10 14.68 10 14 C9.2575 13.95875 8.515 13.9175 7.75 13.875 C3.77221889 12.60934238 2.8915196 10.64793066 1 7 C0.25 3.125 0.25 3.125 0 0 Z " fill="#75959A" transform="translate(59,154)"/>
<path d="M0 0 C1.51400391 0.01740234 1.51400391 0.01740234 3.05859375 0.03515625 C4.07050781 0.04417969 5.08242187 0.05320313 6.125 0.0625 C6.90746094 0.07410156 7.68992187 0.08570313 8.49609375 0.09765625 C4.4631663 2.33211605 1.04641941 2.64262368 -3.50390625 3.09765625 C-3.50390625 3.75765625 -3.50390625 4.41765625 -3.50390625 5.09765625 C-4.38433594 5.21882812 -5.26476562 5.34 -6.171875 5.46484375 C-7.33332031 5.63242188 -8.49476562 5.8 -9.69140625 5.97265625 C-10.83996094 6.13507813 -11.98851562 6.2975 -13.171875 6.46484375 C-16.4161816 6.96719951 -16.4161816 6.96719951 -18.96875 8.1015625 C-22.2185094 9.37843253 -25.4346095 9.78150033 -28.87890625 10.16015625 C-29.59554443 10.24249512 -30.31218262 10.32483398 -31.05053711 10.40966797 C-41.16471503 11.4862113 -51.343152 11.76628338 -61.50390625 12.09765625 C-61.83390625 11.43765625 -62.16390625 10.77765625 -62.50390625 10.09765625 C-61.52808594 10.03707031 -60.55226563 9.97648438 -59.546875 9.9140625 C-58.27457031 9.83027344 -57.00226563 9.74648437 -55.69140625 9.66015625 C-54.42683594 9.57894531 -53.16226563 9.49773437 -51.859375 9.4140625 C-48.51208732 9.22581078 -48.51208732 9.22581078 -45.50390625 8.09765625 C-42.67222307 7.79471243 -39.8398779 7.59010567 -37 7.37890625 C-34.50802198 7.24315355 -34.50802198 7.24315355 -32.50390625 6.09765625 C-30.10991235 5.94133742 -27.71343885 5.82203964 -25.31640625 5.72265625 C-19.69914584 5.4309194 -15.52682608 4.60911616 -10.50390625 2.09765625 C-8.17695661 1.72234179 -5.8441394 1.37848423 -3.50390625 1.09765625 C-2.50390625 0.09765625 -2.50390625 0.09765625 0 0 Z " fill="#4D9174" transform="translate(135.50390625,186.90234375)"/>
<path d="M0 0 C0.66 0.66 1.32 1.32 2 2 C0.68 2.33 -0.64 2.66 -2 3 C-2 3.66 -2 4.32 -2 5 C-33.51501669 18.73652458 -33.51501669 18.73652458 -48 18 C-47.67 17.34 -47.34 16.68 -47 16 C-45.0390625 15.65625 -45.0390625 15.65625 -42.625 15.5 C-39.10348536 15.27058537 -38.07060704 15.04707136 -35 13 C-34.01 13 -33.02 13 -32 13 C-31.67 12.01 -31.34 11.02 -31 10 C-30.67 10.66 -30.34 11.32 -30 12 C-28.68 12 -27.36 12 -26 12 C-26 11.01 -26 10.02 -26 9 C-24.824375 9.04125 -23.64875 9.0825 -22.4375 9.125 C-18.27590326 9.13983635 -14.93512333 8.31170778 -11 7 C-11 5.68 -11 4.36 -11 3 C-10.28972656 2.86722656 -9.57945312 2.73445312 -8.84765625 2.59765625 C-7.92855469 2.42105469 -7.00945312 2.24445313 -6.0625 2.0625 C-5.14597656 1.88847656 -4.22945312 1.71445313 -3.28515625 1.53515625 C-1.04710156 1.22285012 -1.04710156 1.22285012 0 0 Z " fill="#454288" transform="translate(238,239)"/>
<path d="M0 0 C-1.4199255 3.23048748 -3.13619387 5.38242488 -5.6328125 7.86328125 C-6.35726563 8.58580078 -7.08171875 9.30832031 -7.828125 10.05273438 C-8.58609375 10.79845703 -9.3440625 11.54417969 -10.125 12.3125 C-10.85976563 13.04662109 -11.59453125 13.78074219 -12.3515625 14.53710938 C-26.33071788 28.4055144 -26.33071788 28.4055144 -32 30 C-32 29.34 -32 28.68 -32 28 C-32.66 27.67 -33.32 27.34 -34 27 C-33.34 27 -32.68 27 -32 27 C-32 26.34 -32 25.68 -32 25 C-31.01 25 -30.02 25 -29 25 C-29 24.34 -29 23.68 -29 23 C-27.55235738 21.70958086 -26.03910851 20.49232866 -24.5 19.3125 C-20.37453515 16.10706069 -16.44150928 12.78236918 -12.59375 9.25 C-11 8 -11 8 -9 8 C-8.7525 7.4225 -8.505 6.845 -8.25 6.25 C-6.15415198 2.47747356 -4.46699396 0 0 0 Z " fill="#408D48" transform="translate(345,71)"/>
<path d="M0 0 C0.78375 0.04125 1.5675 0.0825 2.375 0.125 C2.375 0.785 2.375 1.445 2.375 2.125 C1.715 2.125 1.055 2.125 0.375 2.125 C-0.285 3.445 -0.945 4.765 -1.625 6.125 C-2.945 6.125 -4.265 6.125 -5.625 6.125 C-5.65980469 6.71152344 -5.69460938 7.29804687 -5.73046875 7.90234375 C-7.12348014 11.36358165 -9.66733671 12.06151225 -12.9375 13.6875 C-16.7778657 15.61843415 -20.21219993 17.52619382 -23.625 20.125 C-25.60514432 20.84851427 -27.60321315 21.52765389 -29.625 22.125 C-26.80567616 18.9673573 -23.9702426 17.12500244 -20.30859375 15.140625 C-18.05974152 13.7840088 -16.36667346 12.07567427 -14.625 10.125 C-15.2025 10.475625 -15.78 10.82625 -16.375 11.1875 C-18.98301776 12.27417407 -20.01917629 12.05565133 -22.625 11.125 C-19.36318845 9.07471845 -16.19914333 7.53803341 -12.625 6.125 C-8.74667176 4.32060404 -3.89735741 0.18558845 0 0 Z " fill="#4E9F6A" transform="translate(281.625,119.875)"/>
<path d="M0 0 C2.125 0.375 2.125 0.375 4 1 C2.68 1.33 1.36 1.66 0 2 C0 2.99 0 3.98 0 5 C-4.28042562 7.18800913 -8.53547621 9.21419048 -13 11 C-16.82760691 12.84588141 -20.60274765 14.7940173 -24.375 16.75 C-27 18 -27 18 -29 18 C-29 18.66 -29 19.32 -29 20 C-31.31 20 -33.62 20 -36 20 C-36.33 19.34 -36.66 18.68 -37 18 C-33.91190305 16.23537317 -32.76687864 16 -29 16 C-29 15.34 -29 14.68 -29 14 C-28.31292969 13.73445312 -27.62585938 13.46890625 -26.91796875 13.1953125 C-26.01691406 12.84210938 -25.11585938 12.48890625 -24.1875 12.125 C-23.29417969 11.77695313 -22.40085938 11.42890625 -21.48046875 11.0703125 C-18.82288409 10.01167845 -18.82288409 10.01167845 -16 8 C-15.01 8 -14.02 8 -13 8 C-13 7.34 -13 6.68 -13 6 C-12.22914063 5.73445312 -11.45828125 5.46890625 -10.6640625 5.1953125 C-9.66117188 4.84210938 -8.65828125 4.48890625 -7.625 4.125 C-6.62726563 3.77695313 -5.62953125 3.42890625 -4.6015625 3.0703125 C-1.89557882 2.15217498 -1.89557882 2.15217498 0 0 Z " fill="#697E9E" transform="translate(221,156)"/>
<path d="M0 0 C1.32 0.99 2.64 1.98 4 3 C3.525625 3.433125 3.05125 3.86625 2.5625 4.3125 C0.76313043 6.02309613 0.76313043 6.02309613 0 9 C-0.66 9 -1.32 9 -2 9 C-2.2371875 9.58265625 -2.474375 10.1653125 -2.71875 10.765625 C-4.27860902 13.48586694 -6.0133661 14.8456791 -8.5 16.75 C-9.38429688 17.43578125 -10.26859375 18.1215625 -11.1796875 18.828125 C-12.11039063 19.54484375 -13.04109375 20.2615625 -14 21 C-15.87797544 22.49627312 -17.7531258 23.99610107 -19.625 25.5 C-21.08333333 26.66666667 -22.54166667 27.83333333 -24 29 C-24.66 27.68 -25.32 26.36 -26 25 C-23.42595029 21.13892543 -21.38979741 21.05680308 -17 20 C-16.67 18.35 -16.34 16.7 -16 15 C-15.34 15 -14.68 15 -14 15 C-13.67 15.99 -13.34 16.98 -13 18 C-12.67 17.01 -12.34 16.02 -12 15 C-11.360625 14.855625 -10.72125 14.71125 -10.0625 14.5625 C-7.79688294 14.19895007 -7.79688294 14.19895007 -6.75 11.9375 C-6.5025 11.298125 -6.255 10.65875 -6 10 C-5.34 10 -4.68 10 -4 10 C-3.566875 8.3603125 -3.566875 8.3603125 -3.125 6.6875 C-2 3 -2 3 0 0 Z " fill="#45438A" transform="translate(267,211)"/>
<path d="M0 0 C-3.47775696 2.31850464 -6.5917246 2.83763202 -10.625 3.5 C-11.38498291 3.62673096 -12.14496582 3.75346191 -12.92797852 3.8840332 C-15.2835877 4.26800212 -17.641277 4.63570114 -20 5 C-20.67369629 5.10876465 -21.34739258 5.2175293 -22.04150391 5.32958984 C-31.54785589 6.82933787 -40.94604469 7.19963097 -50.5625 7.25 C-51.66907959 7.25926514 -52.77565918 7.26853027 -53.91577148 7.27807617 C-59.96318515 7.25464193 -65.21009562 6.76855261 -71 5 C-71 4.67 -71 4.34 -71 4 C-70.06317383 4.00523682 -69.12634766 4.01047363 -68.16113281 4.01586914 C-64.62743493 4.03308862 -61.09378275 4.04553544 -57.56005859 4.05493164 C-56.04149667 4.05990685 -54.5229394 4.06668941 -53.00439453 4.07543945 C-37.78904844 4.62143755 -37.78904844 4.62143755 -23 2 C-19.8162202 1.74185569 -16.63862297 1.55855775 -13.44921875 1.39453125 C-8.80064433 1.12863646 -4.65569848 -0.12582969 0 0 Z " fill="#50A965" transform="translate(160,170)"/>
<path d="M0 0 C0.66 0.33 1.32 0.66 2 1 C2 1.66 2 2.32 2 3 C1.67 3.33 1.34 3.66 1 4 C1.33 4.66 1.66 5.32 2 6 C1.01789629 8.0088485 0.01559401 10.00787329 -1 12 C-1.12375 12.825 -1.2475 13.65 -1.375 14.5 C-2 17 -2 17 -4.5 19.9375 C-7.13899659 23.17027083 -7.70797009 24.91158131 -8 29 C-8.66 29 -9.32 29 -10 29 C-10.04898438 29.92683594 -10.09796875 30.85367188 -10.1484375 31.80859375 C-10.22320312 33.00613281 -10.29796875 34.20367187 -10.375 35.4375 C-10.47941406 37.22994141 -10.47941406 37.22994141 -10.5859375 39.05859375 C-10.79089844 40.51458984 -10.79089844 40.51458984 -11 42 C-11.99 42.495 -11.99 42.495 -13 43 C-11.35265468 27.32854387 -6.93872403 14.09184684 0 0 Z " fill="#746F8F" transform="translate(72,80)"/>
<path d="M0 0 C-11.09410492 5.17198486 -11.09410492 5.17198486 -17 7 C-17.763125 7.33 -18.52625 7.66 -19.3125 8 C-22.43849181 9.16315975 -25.55661531 9.85156058 -28.81640625 10.53515625 C-29.89728516 10.76525391 -29.89728516 10.76525391 -31 11 C-31.73089844 11.14308594 -32.46179688 11.28617188 -33.21484375 11.43359375 C-33.80394531 11.62050781 -34.39304688 11.80742187 -35 12 C-35.33 12.66 -35.66 13.32 -36 14 C-37.010625 13.95875 -38.02125 13.9175 -39.0625 13.875 C-43.0524177 14.00166405 -46.20958418 14.81084994 -50 16 C-50.66 16 -51.32 16 -52 16 C-52 15.34 -52 14.68 -52 14 C-51.45996338 13.85377197 -50.91992676 13.70754395 -50.36352539 13.55688477 C-47.92889078 12.89556445 -45.49569321 12.22910312 -43.0625 11.5625 C-42.21236328 11.33240234 -41.36222656 11.10230469 -40.48632812 10.86523438 C-39.67744141 10.64287109 -38.86855469 10.42050781 -38.03515625 10.19140625 C-37.2862915 9.98717041 -36.53742676 9.78293457 -35.76586914 9.57250977 C-33.99456078 9.14608201 -33.99456078 9.14608201 -33 8 C-31.48071962 7.92820036 -29.95832518 7.91607993 -28.4375 7.9375 C-27.61121094 7.94652344 -26.78492188 7.95554688 -25.93359375 7.96484375 C-25.29550781 7.97644531 -24.65742188 7.98804688 -24 8 C-24 7.34 -24 6.68 -24 6 C-22.08594633 5.32586789 -20.16863974 4.6609668 -18.25 4 C-17.18265625 3.62875 -16.1153125 3.2575 -15.015625 2.875 C-12 2 -12 2 -8 2 C-8 1.34 -8 0.68 -8 0 C-2.25 -1.125 -2.25 -1.125 0 0 Z " fill="#688099" transform="translate(184,176)"/>
<path d="M0 0 C0.66 0.33 1.32 0.66 2 1 C-4.75 5 -4.75 5 -7 5 C-7.33 5.99 -7.66 6.98 -8 8 C-10.31 8.33 -12.62 8.66 -15 9 C-15.33 9.99 -15.66 10.98 -16 12 C-20.37128835 15.11936806 -24.60959347 16.53904065 -30 16 C-27.52563331 11.77902153 -24.46119452 10.72186455 -20 9 C-16.67173953 7.56075223 -16.11820073 7.17730109 -14 4 C-12.9790625 4.0309375 -12.9790625 4.0309375 -11.9375 4.0625 C-8.06660162 3.98014046 -5.41481059 2.48772898 -1.98828125 0.77734375 C-1.00408203 0.39255859 -1.00408203 0.39255859 0 0 Z " fill="#8785B3" transform="translate(262,128)"/>
<path d="M0 0 C0.66 0.33 1.32 0.66 2 1 C-2.30769231 4.93846154 -2.30769231 4.93846154 -5.8125 5.25 C-6.534375 5.1675 -7.25625 5.085 -8 5 C-7.67 5.99 -7.34 6.98 -7 8 C-6.34 8.33 -5.68 8.66 -5 9 C-9.66014549 12.61399038 -13.18853713 14.60094412 -19 16 C-20.67632417 16.64199649 -22.34750513 17.29894157 -24 18 C-21.75 15.5 -21.75 15.5 -19 13 C-17.68 13 -16.36 13 -15 13 C-14.34 11.35 -13.68 9.7 -13 8 C-14.98 8.33 -16.96 8.66 -19 9 C-17.63523137 6.27046274 -16.25979891 6.13540447 -13.4375 5.0625 C-12.53902344 4.71960938 -11.64054688 4.37671875 -10.71484375 4.0234375 C-9.81894531 3.68570313 -8.92304688 3.34796875 -8 3 C-6.82630859 2.52433594 -6.82630859 2.52433594 -5.62890625 2.0390625 C-3.77602299 1.2979092 -1.88980617 0.64118424 0 0 Z " fill="#42AD54" transform="translate(239,142)"/>
<path d="M0 0 C1.32 0 2.64 0 4 0 C4 0.66 4 1.32 4 2 C3.34 2 2.68 2 2 2 C2 2.66 2 3.32 2 4 C3.32 4.33 4.64 4.66 6 5 C4.02 5.99 4.02 5.99 2 7 C2 7.66 2 8.32 2 9 C0.68 9.33 -0.64 9.66 -2 10 C-2 9.34 -2 8.68 -2 8 C-1.34 8 -0.68 8 0 8 C0 7.34 0 6.68 0 6 C-3.97009499 7.17298261 -6.74897431 8.48307689 -10 11 C-13.28792291 12.51750288 -16.43527023 13.38890347 -20 14 C-16.90630569 10.72952316 -14.0697162 7.98268225 -10 6 C-8.68 6 -7.36 6 -6 6 C-5.67 5.34 -5.34 4.68 -5 4 C-4.01 3.67 -3.02 3.34 -2 3 C-1.34 2.01 -0.68 1.02 0 0 Z " fill="#7280A2" transform="translate(284,114)"/>
<path d="M0 0 C4.56312473 3.61461004 7.96079609 6.96631853 11 12 C11.56976563 12.86238281 12.13953125 13.72476563 12.7265625 14.61328125 C13.35304688 15.56589844 13.97953125 16.51851562 14.625 17.5 C15.21539062 18.3971875 15.80578125 19.294375 16.4140625 20.21875 C18.04851528 23.08508099 19.06246705 25.84394849 20 29 C19.01 28.67 18.02 28.34 17 28 C16.505 25.525 16.505 25.525 16 23 C15.01 22.67 14.02 22.34 13 22 C13 21.01 13 20.02 13 19 C11.35511706 17.31183067 9.68662458 15.64646685 8 14 C7.30419733 12.68163705 6.62775567 11.35208914 6 10 C5.34 9.67 4.68 9.34 4 9 C4 8.34 4 7.68 4 7 C3.01 6.67 2.02 6.34 1 6 C0.67 4.02 0.34 2.04 0 0 Z " fill="#6D6791" transform="translate(264,55)"/>
<path d="M0 0 C6.36957036 8.02231602 8.82670424 16.96569445 10 27 C6.25 30 6.25 30 4 30 C4 28.68 4 27.36 4 26 C4.66 26 5.32 26 6 26 C5.86722656 25.43152344 5.73445313 24.86304687 5.59765625 24.27734375 C4.7646149 20.63506807 4.0107894 17.08939787 3.5625 13.375 C3.09836643 10.59019861 2.56371273 8.76555927 1.4375 6.25 C0 3 0 3 0 0 Z " fill="#7371A6" transform="translate(284,84)"/>
<path d="M0 0 C0 5.94 0 11.88 0 18 C-0.99 18.33 -1.98 18.66 -3 19 C-3 16.69 -3 14.38 -3 12 C-3.66 11.67 -4.32 11.34 -5 11 C-4.67 10.34 -4.34 9.68 -4 9 C-5.32 8.67 -6.64 8.34 -8 8 C-6.48291727 4.46014029 -4.24676932 0 0 0 Z " fill="#3C9F49" transform="translate(44,124)"/>
<path d="M0 0 C0.61328125 1.796875 0.61328125 1.796875 1 4 C-0.8125 7.25 -0.8125 7.25 -3 10 C-3.66 10 -4.32 10 -5 10 C-5.268125 10.53625 -5.53625 11.0725 -5.8125 11.625 C-6.204375 12.40875 -6.59625 13.1925 -7 14 C-7.680625 15.5778125 -7.680625 15.5778125 -8.375 17.1875 C-10 20 -10 20 -12.1875 20.875 C-12.785625 20.91625 -13.38375 20.9575 -14 21 C-10.9074354 12.49544735 -6.11344543 6.54376076 0 0 Z " fill="#8480A1" transform="translate(87,59)"/>
<path d="M0 0 C1.49080078 0.02707031 1.49080078 0.02707031 3.01171875 0.0546875 C3.77097656 0.07789063 4.53023437 0.10109375 5.3125 0.125 C5.3125 0.785 5.3125 1.445 5.3125 2.125 C-0.25817277 3.71662079 -4.89851581 4.33174944 -10.6875 4.125 C-10.6875 4.785 -10.6875 5.445 -10.6875 6.125 C-16.25817277 7.71662079 -20.89851581 8.33174944 -26.6875 8.125 C-26.6875 7.795 -26.6875 7.465 -26.6875 7.125 C-25.57375 7.021875 -24.46 6.91875 -23.3125 6.8125 C-22.11625 6.585625 -20.92 6.35875 -19.6875 6.125 C-19.0275 5.135 -18.3675 4.145 -17.6875 3.125 C-15.62890625 2.68359375 -15.62890625 2.68359375 -13.25 2.5625 C-8.23953656 2.29010248 -5.16796833 -0.12159925 0 0 Z " fill="#87A3A5" transform="translate(170.6875,163.875)"/>
<path d="M0 0 C-4.50840193 4.35766508 -7.85657869 6.38331018 -14 8 C-16.1392671 9.27327912 -18.17353551 10.63321021 -20.203125 12.07421875 C-20.79609375 12.37972656 -21.3890625 12.68523437 -22 13 C-22.99 12.67 -23.98 12.34 -25 12 C-23.40207898 10.82479354 -21.79643092 9.66008753 -20.1875 8.5 C-19.29417969 7.8503125 -18.40085938 7.200625 -17.48046875 6.53125 C-15 5 -15 5 -12 5 C-12 4.34 -12 3.68 -12 3 C-10.3789897 2.30314502 -8.75303934 1.61777139 -7.125 0.9375 C-6.22007812 0.55464844 -5.31515625 0.17179688 -4.3828125 -0.22265625 C-2 -1 -2 -1 0 0 Z " fill="#568C7D" transform="translate(252,143)"/>
<path d="M0 0 C0.33 2.97 0.66 5.94 1 9 C0.01 8.67 -0.98 8.34 -2 8 C-2 8.66 -2 9.32 -2 10 C-2.99 10.495 -2.99 10.495 -4 11 C-4 11.66 -4 12.32 -4 13 C-4.66 13 -5.32 13 -6 13 C-6.33 11.35 -6.66 9.7 -7 8 C-7.99 8 -8.98 8 -10 8 C-10 7.34 -10 6.68 -10 6 C-8.06640625 4.4921875 -8.06640625 4.4921875 -5.5625 2.875 C-4.73878906 2.33617188 -3.91507812 1.79734375 -3.06640625 1.2421875 C-1 0 -1 0 0 0 Z " fill="#51539F" transform="translate(296,115)"/>
<path d="M0 0 C-0.763125 0.45375 -1.52625 0.9075 -2.3125 1.375 C-4.23632814 2.53824492 -6.12941224 3.7529415 -8 5 C-10.0078125 5.16015625 -10.0078125 5.16015625 -12.125 5.0625 C-14.043125 5.0315625 -14.043125 5.0315625 -16 5 C-16.33 5.33 -16.66 5.66 -17 6 C-18.85287502 6.07226502 -20.70833878 6.0838122 -22.5625 6.0625 C-23.57441406 6.05347656 -24.58632812 6.04445312 -25.62890625 6.03515625 C-26.41136719 6.02355469 -27.19382813 6.01195312 -28 6 C-28 5.67 -28 5.34 -28 5 C-22.61972975 3.80911014 -17.54708616 2.7080481 -12 3 C-11.67 2.01 -11.34 1.02 -11 0 C-3.57142857 -1.28571429 -3.57142857 -1.28571429 0 0 Z " fill="#53AB69" transform="translate(188,163)"/>
<path d="M0 0 C0.99 0 1.98 0 3 0 C3 0.66 3 1.32 3 2 C1.68 1.67 0.36 1.34 -1 1 C-0.67 0.67 -0.34 0.34 0 0 Z M-2 2 C-1.67 2.99 -1.34 3.98 -1 5 C-3.64738916 6.4606285 -4.89448334 7 -8 7 C-8 7.66 -8 8.32 -8 9 C-9.28788008 9.53012738 -10.58046678 10.0488329 -11.875 10.5625 C-12.95394531 10.99755859 -12.95394531 10.99755859 -14.0546875 11.44140625 C-16 12 -16 12 -18 11 C-17.67 10.01 -17.34 9.02 -17 8 C-15.01363702 7.29373761 -13.01151741 6.63106429 -11 6 C-10.319375 5.484375 -9.63875 4.96875 -8.9375 4.4375 C-6.64799792 2.73883716 -4.79505317 2.38820183 -2 2 Z " fill="#3EB14A" transform="translate(248,139)"/>
<path d="M0 0 C2.125 0.375 2.125 0.375 4 1 C2.68 1.33 1.36 1.66 0 2 C0 2.99 0 3.98 0 5 C-5.77874846 8.25711277 -10.37822074 9.69343615 -17 10 C-16.67 9.34 -16.34 8.68 -16 8 C-15.01 8 -14.02 8 -13 8 C-13 7.34 -13 6.68 -13 6 C-12.22914063 5.73445312 -11.45828125 5.46890625 -10.6640625 5.1953125 C-9.66117188 4.84210938 -8.65828125 4.48890625 -7.625 4.125 C-6.62726563 3.77695313 -5.62953125 3.42890625 -4.6015625 3.0703125 C-1.89557882 2.15217498 -1.89557882 2.15217498 0 0 Z " fill="#61878D" transform="translate(221,156)"/>
<path d="M0 0 C0.66 0 1.32 0 2 0 C1.67 8.25 1.34 16.5 1 25 C0.34 25 -0.32 25 -1 25 C-1.02900455 21.3958502 -1.04680018 17.79173038 -1.0625 14.1875 C-1.07087891 13.16333984 -1.07925781 12.13917969 -1.08789062 11.08398438 C-1.09111328 10.10107422 -1.09433594 9.11816406 -1.09765625 8.10546875 C-1.10289307 7.19949951 -1.10812988 6.29353027 -1.11352539 5.36010742 C-1 3 -1 3 0 0 Z " fill="#41924E" transform="translate(28,149)"/>
<path d="M0 0 C-1.58667578 3.90285767 -4.13350481 6.33520982 -7.125 9.25 C-8.03507812 10.14203125 -8.94515625 11.0340625 -9.8828125 11.953125 C-10.58148438 12.62859375 -11.28015625 13.3040625 -12 14 C-13.32 13.34 -14.64 12.68 -16 12 C-11.25 8 -11.25 8 -9 8 C-8.7525 7.4225 -8.505 6.845 -8.25 6.25 C-6.15415198 2.47747356 -4.46699396 0 0 0 Z " fill="#356D3C" transform="translate(345,71)"/>
<path d="M0 0 C1.1796875 1.640625 1.1796875 1.640625 2 4 C0.8828125 6.796875 0.8828125 6.796875 -0.875 9.75 C-1.73738281 11.22726563 -1.73738281 11.22726563 -2.6171875 12.734375 C-3.07351563 13.48203125 -3.52984375 14.2296875 -4 15 C-4.99 14.01 -5.98 13.02 -7 12 C-5.61735163 9.13132769 -4.07851447 6.43975968 -2.375 3.75 C-1.92898438 3.04359375 -1.48296875 2.3371875 -1.0234375 1.609375 C-0.68570312 1.07828125 -0.34796875 0.5471875 0 0 Z " fill="#464289" transform="translate(285,185)"/>
<path d="M0 0 C1.32 0.33 2.64 0.66 4 1 C3.00390625 2.7265625 2.0078125 4.453125 1.01171875 6.1796875 C-0.06892058 8.06219488 -0.06892058 8.06219488 -1.0625 10.375 C-2 12 -2 12 -5 13 C-4.67 9.7 -4.34 6.4 -4 3 C-2.02 3.495 -2.02 3.495 0 4 C0 2.68 0 1.36 0 0 Z " fill="#464588" transform="translate(276,200)"/>
<path d="M0 0 C0.33 0.66 0.66 1.32 1 2 C3.11785113 3.11785113 3.11785113 3.11785113 6 4 C7.37195574 5.29355827 8.71182656 6.62298702 10 8 C4.49191603 7.40984815 -0.64878069 6.43336231 -6 5 C-5.36578125 4.87753906 -4.7315625 4.75507813 -4.078125 4.62890625 C-1.80283433 4.19303909 -1.80283433 4.19303909 -0.75 1.9375 C-0.5025 1.298125 -0.255 0.65875 0 0 Z " fill="#434087" transform="translate(147,248)"/>
<path d="M0 0 C0.33 0 0.66 0 1 0 C1.24468599 4.15966187 0.44271297 7.10467499 -1 11 C-1.70863866 12.95822287 -2.41695012 14.91656416 -3.125 16.875 C-3.74921585 18.58362002 -4.37395415 20.29204966 -5 22 C-5.33 22 -5.66 22 -6 22 C-5.505 17.545 -5.505 17.545 -5 13 C-4.34 13 -3.68 13 -3 13 C-3 9.7 -3 6.4 -3 3 C-2.34 3 -1.68 3 -1 3 C-0.67 2.01 -0.34 1.02 0 0 Z " fill="#403F7C" transform="translate(294,162)"/>
<path d="M0 0 C-3.21398272 2.14265515 -6.17784342 3.26579078 -9.8125 4.5625 C-11.01519531 4.99691406 -12.21789062 5.43132812 -13.45703125 5.87890625 C-16.65570752 6.89105629 -19.68188983 7.5477614 -23 8 C-22.67 7.34 -22.34 6.68 -22 6 C-19.35139573 5.40644386 -16.70802678 5.25790731 -14 5 C-14 4.34 -14 3.68 -14 3 C-8.99067246 -0.00559652 -5.67276511 -0.29341888 0 0 Z " fill="#8BA0AB" transform="translate(211,153)"/>
<path d="M0 0 C1.32 0.33 2.64 0.66 4 1 C-0.93512347 4.12771462 -5.91009007 7.13114168 -11 10 C-11.95132812 10.58007812 -11.95132812 10.58007812 -12.921875 11.171875 C-14.58085514 12.17274732 -16.28764854 13.09346099 -18 14 C-18.66 13.67 -19.32 13.34 -20 13 C-17.12219515 10.69775612 -14.09093137 8.84588087 -10.875 7.05078125 C-9.59573184 6.33385805 -8.32511595 5.60132857 -7.0625 4.85546875 C-2.21930212 2 -2.21930212 2 0 2 C0 1.34 0 0.68 0 0 Z " fill="#4E847B" transform="translate(272,128)"/>
<path d="M0 0 C5.06998019 0.65419099 9.41990777 2.8546409 14 5 C10.08263419 6.1700097 7.02040985 5.69584017 3 5 C2.67 5.66 2.34 6.32 2 7 C1.34 6.34 0.68 5.68 0 5 C0 3.33333333 0 1.66666667 0 0 Z " fill="#7C769E" transform="translate(217,25)"/>
<path d="M0 0 C1.32 0 2.64 0 4 0 C4 0.66 4 1.32 4 2 C3.34 2 2.68 2 2 2 C2 2.66 2 3.32 2 4 C3.32 4.33 4.64 4.66 6 5 C4.02 5.99 4.02 5.99 2 7 C2 7.66 2 8.32 2 9 C0.68 9.33 -0.64 9.66 -2 10 C-2 9.34 -2 8.68 -2 8 C-1.34 8 -0.68 8 0 8 C0 7.34 0 6.68 0 6 C-0.99 5.67 -1.98 5.34 -3 5 C-1.75 2.5 -1.75 2.5 0 0 Z " fill="#578385" transform="translate(284,114)"/>
<path d="M0 0 C-0.969375 0.28875 -1.93875 0.5775 -2.9375 0.875 C-6.10664203 1.64214682 -6.10664203 1.64214682 -7 4 C-8.010625 3.95875 -9.02125 3.9175 -10.0625 3.875 C-14.0524177 4.00166405 -17.20958418 4.81084994 -21 6 C-21.66 6 -22.32 6 -23 6 C-23 5.34 -23 4.68 -23 4 C-19.73257727 3.13240448 -16.46063519 2.28326557 -13.1875 1.4375 C-12.25873047 1.19064453 -11.32996094 0.94378906 -10.37304688 0.68945312 C-9.0340332 0.34624023 -9.0340332 0.34624023 -7.66796875 -0.00390625 C-6.84578857 -0.21861572 -6.0236084 -0.4333252 -5.17651367 -0.65454102 C-3 -1 -3 -1 0 0 Z " fill="#6978A1" transform="translate(155,186)"/>
<path d="M0 0 C2.64 0 5.28 0 8 0 C5.9618283 4.07634339 0.08077694 5.42748894 -4 7 C-6.39877047 7.57406473 -8.53170242 7.83544683 -11 8 C-9.68 7.67 -8.36 7.34 -7 7 C-7 6.34 -7 5.68 -7 5 C-6.01 5 -5.02 5 -4 5 C-4 4.34 -4 3.68 -4 3 C-2.68 3 -1.36 3 0 3 C0 2.01 0 1.02 0 0 Z " fill="#8797AD" transform="translate(224,144)"/>
<path d="M0 0 C-4.22949995 2.41685712 -7.12335991 3.34833144 -12 3 C-12 3.66 -12 4.32 -12 5 C-18.28571429 7.42857143 -18.28571429 7.42857143 -22 6 C-21.01 6 -20.02 6 -19 6 C-19 5.34 -19 4.68 -19 4 C-17.02 4 -15.04 4 -13 4 C-13 3.34 -13 2.68 -13 2 C-11.68 2 -10.36 2 -9 2 C-9 1.34 -9 0.68 -9 0 C-2.25 -1.125 -2.25 -1.125 0 0 Z " fill="#4EA068" transform="translate(188,173)"/>
<path d="M0 0 C0.66 0.33 1.32 0.66 2 1 C-1.97737149 4.73631867 -4.65819468 5.37678938 -10 6 C-13.0394941 6.89197275 -16.02052865 7.92576883 -19 9 C-17.63523137 6.27046274 -16.25979891 6.13540447 -13.4375 5.0625 C-12.53902344 4.71960938 -11.64054688 4.37671875 -10.71484375 4.0234375 C-9.81894531 3.68570313 -8.92304688 3.34796875 -8 3 C-7.21753906 2.68289062 -6.43507812 2.36578125 -5.62890625 2.0390625 C-3.77602299 1.2979092 -1.88980617 0.64118424 0 0 Z " fill="#56A56A" transform="translate(239,142)"/>
<path d="M0 0 C-9.22551253 5.74031891 -9.22551253 5.74031891 -15 5 C-13.40360642 2.4131048 -12.49603391 1.17767179 -9.58984375 0.13671875 C-8.71457031 -0.01152344 -7.83929688 -0.15976563 -6.9375 -0.3125 C-6.05964844 -0.47363281 -5.18179688 -0.63476562 -4.27734375 -0.80078125 C-2 -1 -2 -1 0 0 Z " fill="#79969E" transform="translate(247,139)"/>
<path d="M0 0 C4.72887486 5.8903529 8.38490825 13.41386842 9 21 C8.34 20.67 7.68 20.34 7 20 C7 18.68 7 17.36 7 16 C6.34 16 5.68 16 5 16 C4.1605118 13.89828133 3.32860344 11.79353375 2.5 9.6875 C2.0359375 8.51574219 1.571875 7.34398438 1.09375 6.13671875 C0 3 0 3 0 0 Z " fill="#555176" transform="translate(284,84)"/>
<path d="M0 0 C0.66 0.33 1.32 0.66 2 1 C0.35 1.33 -1.3 1.66 -3 2 C-3 2.66 -3 3.32 -3 4 C-3.92232422 4.07347656 -3.92232422 4.07347656 -4.86328125 4.1484375 C-5.67152344 4.22320312 -6.47976562 4.29796875 -7.3125 4.375 C-8.11300781 4.44460937 -8.91351563 4.51421875 -9.73828125 4.5859375 C-12.27224441 4.89564426 -12.27224441 4.89564426 -15 7 C-17.1875 6.625 -17.1875 6.625 -19 6 C-17.68 5.67 -16.36 5.34 -15 5 C-15 4.34 -15 3.68 -15 3 C-14.41992188 2.95101562 -13.83984375 2.90203125 -13.2421875 2.8515625 C-8.52995518 2.40055677 -4.4974461 1.5357133 0 0 Z " fill="#4DA069" transform="translate(163,180)"/>
<path d="M0 0 C2 1 2 1 5 3 C1.57653445 6.14958831 -1.44262737 6.56179109 -6 7 C-5.67 6.01 -5.34 5.02 -5 4 C-4.34 4 -3.68 4 -3 4 C-3 3.34 -3 2.68 -3 2 C-2.01 1.34 -1.02 0.68 0 0 Z " fill="#4B926A" transform="translate(291,112)"/>
<path d="M0 0 C0.33 0.66 0.66 1.32 1 2 C2.65 1.34 4.3 0.68 6 0 C6.33 0.66 6.66 1.32 7 2 C4.94766315 4.2477975 3.99332739 5.0022242 1 6 C-1.6875 5.5625 -1.6875 5.5625 -4 5 C-2.68 3.35 -1.36 1.7 0 0 Z " fill="#9490B2" transform="translate(97,49)"/>
<path d="M0 0 C2.0625 0.4375 2.0625 0.4375 4 1 C2.08850332 2.0098473 0.17058431 3.00754495 -1.75 4 C-2.81734375 4.556875 -3.8846875 5.11375 -4.984375 5.6875 C-8 7 -8 7 -12 7 C-12 7.66 -12 8.32 -12 9 C-13.32 8.67 -14.64 8.34 -16 8 C-15.01 8 -14.02 8 -13 8 C-13 7.01 -13 6.02 -13 5 C-12.14535156 4.72285156 -11.29070312 4.44570312 -10.41015625 4.16015625 C-9.30542969 3.79792969 -8.20070312 3.43570313 -7.0625 3.0625 C-5.96035156 2.70285156 -4.85820312 2.34320313 -3.72265625 1.97265625 C-1.11876525 1.26143332 -1.11876525 1.26143332 0 0 Z " fill="#4BA467" transform="translate(204,163)"/>
<path d="M0 0 C-1 3 -1 3 -2.77734375 4.16796875 C-3.49019531 4.50441406 -4.20304687 4.84085938 -4.9375 5.1875 C-6.00291016 5.70376953 -6.00291016 5.70376953 -7.08984375 6.23046875 C-9 7 -9 7 -11 7 C-10.67 6.01 -10.34 5.02 -10 4 C-9.34 4 -8.68 4 -8 4 C-8 3.34 -8 2.68 -8 2 C-5.09399739 0.74335022 -3.20395416 0 0 0 Z " fill="#41AE55" transform="translate(267,130)"/>
<path d="M0 0 C1.2065625 0.0309375 1.2065625 0.0309375 2.4375 0.0625 C2.4375 0.7225 2.4375 1.3825 2.4375 2.0625 C-3.04925196 3.93033046 -7.78442976 4.2983396 -13.5625 4.0625 C-13.2325 3.4025 -12.9025 2.7425 -12.5625 2.0625 C-10.53125 1.68359375 -10.53125 1.68359375 -8.0625 1.5 C-4.93157952 1.25725458 -2.91883255 0.07119104 0 0 Z " fill="#423F7A" transform="translate(203.5625,252.9375)"/>
<path d="M0 0 C0.66 0.66 1.32 1.32 2 2 C0.68 2.33 -0.64 2.66 -2 3 C-2 3.66 -2 4.32 -2 5 C-4.91482778 5.80967438 -6.46113217 6.21845993 -9.3125 5.0625 C-9.869375 4.711875 -10.42625 4.36125 -11 4 C-11 3.67 -11 3.34 -11 3 C-10.28972656 2.86722656 -9.57945312 2.73445312 -8.84765625 2.59765625 C-7.92855469 2.42105469 -7.00945312 2.24445313 -6.0625 2.0625 C-4.68771484 1.80146484 -4.68771484 1.80146484 -3.28515625 1.53515625 C-1.04710156 1.22285012 -1.04710156 1.22285012 0 0 Z " fill="#48458D" transform="translate(238,239)"/>
<path d="M0 0 C0.66 0 1.32 0 2 0 C2.66 2.64 3.32 5.28 4 8 C4.804375 8.12375 5.60875 8.2475 6.4375 8.375 C7.283125 8.58125 8.12875 8.7875 9 9 C9.33 9.66 9.66 10.32 10 11 C7.1875 11.25 7.1875 11.25 4 11 C0.52699062 8.0060264 0.42230297 4.39195091 0 0 Z " fill="#797BA4" transform="translate(59,154)"/>
<path d="M0 0 C0.66 0 1.32 0 2 0 C2 2 2 2 0.5 3.625 C0.005 4.07875 -0.49 4.5325 -1 5 C0.32 4.67 1.64 4.34 3 4 C2.67 4.66 2.34 5.32 2 6 C-0.5625 6.625 -0.5625 6.625 -3 7 C-3 6.34 -3 5.68 -3 5 C-5.31 5.33 -7.62 5.66 -10 6 C-8 4 -8 4 -5.5625 3.5625 C-2.69212522 2.93241773 -1.92735541 2.11091306 0 0 Z " fill="#50A06A" transform="translate(257,132)"/>
<path d="M0 0 C0 0.99 0 1.98 0 3 C0.33 3.99 0.66 4.98 1 6 C0.484375 5.79375 -0.03125 5.5875 -0.5625 5.375 C-4.03265671 4.84112974 -6.70635791 5.92323239 -10 7 C-6.87378374 3.60582235 -4.43458973 1.3937282 0 0 Z " fill="#8985A5" transform="translate(121,32)"/>
<path d="M0 0 C4.19360449 0.67097672 7.40334352 2.8558394 11 5 C9.68 6.32 8.36 7.64 7 9 C7 8.01 7 7.02 7 6 C6.01 6 5.02 6 4 6 C4 5.34 4 4.68 4 4 C3.34 4 2.68 4 2 4 C2 3.01 2 2.02 2 1 C1.34 0.67 0.68 0.34 0 0 Z " fill="#736E95" transform="translate(231,31)"/>
<path d="M0 0 C0.99 0.33 1.98 0.66 3 1 C-0.11016455 4.28788824 -3.01618925 6.83735988 -7 9 C-6.67 7.68 -6.34 6.36 -6 5 C-5.38125 4.9175 -4.7625 4.835 -4.125 4.75 C-1.81562433 4.18741541 -1.81562433 4.18741541 -0.75 1.9375 C-0.5025 1.298125 -0.255 0.65875 0 0 Z " fill="#3E3E79" transform="translate(261,221)"/>
<path d="M0 0 C0 0.33 0 0.66 0 1 C-1.87256417 1.50904657 -3.74819341 2.00682455 -5.625 2.5 C-6.66914062 2.7784375 -7.71328125 3.056875 -8.7890625 3.34375 C-11.95687418 3.99118596 -14.77741467 4.1161292 -18 4 C-11.91236773 -0.05842151 -7.15871449 -0.2502075 0 0 Z " fill="#62729D" transform="translate(132,192)"/>
<path d="M0 0 C0.66 0.33 1.32 0.66 2 1 C1.01 1 0.02 1 -1 1 C-0.67 0.67 -0.34 0.34 0 0 Z M-6 0 C-3.375 0.9375 -3.375 0.9375 -1 2 C-2.75 5.875 -2.75 5.875 -5 7 C-5.99 5.02 -6.98 3.04 -8 1 C-7.34 0.67 -6.68 0.34 -6 0 Z " fill="#369E45" transform="translate(37,176)"/>
<path d="M0 0 C-5.87877262 3.52726357 -12.34895518 4.60860932 -19 6 C-17.55616857 3.11233713 -15.75142529 2.99281397 -12.75 1.9375 C-11.79609375 1.59589844 -10.8421875 1.25429687 -9.859375 0.90234375 C-2.70854271 -1.35427136 -2.70854271 -1.35427136 0 0 Z " fill="#5EA576" transform="translate(220,152)"/>
<path d="M0 0 C1.98 0.66 3.96 1.32 6 2 C5.25 4.4375 5.25 4.4375 4 7 C1.875 7.8125 1.875 7.8125 0 8 C-1.43088528 5.13822943 -0.59991697 3.06624227 0 0 Z " fill="#3F9158" transform="translate(293,107)"/>
<path d="M0 0 C4.04420651 1.77945087 7.46078487 4.39529673 11 7 C9 7 7 7 5 7 C4.34 7.66 3.68 8.32 3 9 C2.87625 8.2575 2.7525 7.515 2.625 6.75 C2.04513299 4.19858515 1.26291261 2.2732427 0 0 Z " fill="#6C688B" transform="translate(245,39)"/>
<path d="M0 0 C1.98 0 3.96 0 6 0 C3.32429539 3.46267655 0.11099743 3.93681101 -4 5 C-5.67632417 5.64199649 -7.34750513 6.29894157 -9 7 C-6.75 4.5 -6.75 4.5 -4 2 C-2.68 2 -1.36 2 0 2 C0 1.34 0 0.68 0 0 Z " fill="#4AA663" transform="translate(224,153)"/>
<path d="M0 0 C-6.75 4 -6.75 4 -9 4 C-9.33 4.99 -9.66 5.98 -10 7 C-10.99 6.67 -11.98 6.34 -13 6 C-10.773895 1.96518469 -7.96679196 0.93195161 -3.83984375 -0.58203125 C-2 -1 -2 -1 0 0 Z " fill="#7688A2" transform="translate(264,129)"/>
<path d="M0 0 C0.25 2.3125 0.25 2.3125 0 5 C-2 6.8125 -2 6.8125 -4 8 C-4.66 7.67 -5.32 7.34 -6 7 C-5.34 6.01 -4.68 5.02 -4 4 C-4.66 3.67 -5.32 3.34 -6 3 C-1.125 0 -1.125 0 0 0 Z " fill="#378844" transform="translate(303,105)"/>
<path d="M0 0 C2.97246802 2.54782974 4.41535288 5.45340883 6 9 C6 9.66 6 10.32 6 11 C5.01 10.67 4.02 10.34 3 10 C2.67 8.35 2.34 6.7 2 5 C1.01 4.67 0.02 4.34 -1 4 C-0.67 2.68 -0.34 1.36 0 0 Z " fill="#656188" transform="translate(278,73)"/>
<path d="M0 0 C-0.33 0.66 -0.66 1.32 -1 2 C-1.66 2 -2.32 2 -3 2 C-3 2.66 -3 3.32 -3 4 C-5.31 4 -7.62 4 -10 4 C-10.33 3.34 -10.66 2.68 -11 2 C-7.36576791 -0.32590854 -4.22911669 -0.16265833 0 0 Z " fill="#717AA9" transform="translate(195,172)"/>
<path d="M0 0 C0.33 2.97 0.66 5.94 1 9 C-1 8 -1 8 -2 5 C-2.99 5 -3.98 5 -5 5 C-5.66 4.67 -6.32 4.34 -7 4 C-1.125 0 -1.125 0 0 0 Z " fill="#45497E" transform="translate(296,115)"/>
<path d="M0 0 C0.99 0.33 1.98 0.66 3 1 C4.1875 3.5625 4.1875 3.5625 5 6 C3.35 5.67 1.7 5.34 0 5 C0 4.34 0 3.68 0 3 C-0.66 2.67 -1.32 2.34 -2 2 C-1.34 1.34 -0.68 0.68 0 0 Z " fill="#43915C" transform="translate(59,161)"/>
<path d="M0 0 C0.66 0.33 1.32 0.66 2 1 C0.93106782 2.03590338 -0.15578488 3.05333942 -1.25 4.0625 C-2.15492188 4.91521484 -2.15492188 4.91521484 -3.078125 5.78515625 C-5 7 -5 7 -7.234375 6.68359375 C-7.81703125 6.45800781 -8.3996875 6.23242188 -9 6 C-3.30379747 1.25316456 -3.30379747 1.25316456 0 0 Z " fill="#5A7D92" transform="translate(250,142)"/>
<path d="M0 0 C0.66 0 1.32 0 2 0 C1.64950425 3.24208567 1.43778819 4.61527704 -1.0625 6.8125 C-1.701875 7.204375 -2.34125 7.59625 -3 8 C-3 6.02 -3 4.04 -3 2 C-2.01 2 -1.02 2 0 2 C0 1.34 0 0.68 0 0 Z " fill="#8A85AC" transform="translate(68,93)"/>
<path d="M0 0 C0.99 0 1.98 0 3 0 C5.125 4.625 5.125 4.625 4 8 C2.35 6.35 0.7 4.7 -1 3 C-0.67 2.01 -0.34 1.02 0 0 Z " fill="#494785" transform="translate(89,216)"/>
<path d="M0 0 C0 0.99 0 1.98 0 3 C-2.25 5.25 -2.25 5.25 -5 7 C-7.3125 6.75 -7.3125 6.75 -9 6 C-8.360625 5.731875 -7.72125 5.46375 -7.0625 5.1875 C-4.66868314 4.11332248 -4.66868314 4.11332248 -4 1 C-1.9375 0.3125 -1.9375 0.3125 0 0 Z " fill="#50618E" transform="translate(280,125)"/>
<path d="M0 0 C4.92715996 -0.46192125 8.50732625 1.1724717 13 3 C9.87819599 3.96661363 7.47916205 3.98988909 4.25 3.5625 C3.05117187 3.40974609 3.05117187 3.40974609 1.828125 3.25390625 C1.22484375 3.17011719 0.6215625 3.08632813 0 3 C0 2.01 0 1.02 0 0 Z " fill="#686583" transform="translate(204,21)"/>
<path d="M0 0 C-0.33 0.99 -0.66 1.98 -1 3 C-3.97 3 -6.94 3 -10 3 C-6.84916414 -0.15083586 -4.41812253 0 0 0 Z " fill="#52AB65" transform="translate(198,159)"/>
<path d="M0 0 C1.48206495 0.254496 2.96068615 0.52911762 4.4375 0.8125 C5.67306641 1.03873047 5.67306641 1.03873047 6.93359375 1.26953125 C7.95646484 1.63111328 7.95646484 1.63111328 9 2 C9.33 2.99 9.66 3.98 10 5 C8.51800098 4.55090939 7.03944764 4.09043436 5.5625 3.625 C4.73878906 3.36976563 3.91507813 3.11453125 3.06640625 2.8515625 C1 2 1 2 0 0 Z " fill="#44427F" transform="translate(125,245)"/>
<path d="M0 0 C1.32 0.33 2.64 0.66 4 1 C2.71186658 1.83878455 1.41936744 2.67086783 0.125 3.5 C-0.59429687 3.9640625 -1.31359375 4.428125 -2.0546875 4.90625 C-4 6 -4 6 -6 6 C-6 5.34 -6 4.68 -6 4 C-4.02 3.34 -2.04 2.68 0 2 C0 1.34 0 0.68 0 0 Z " fill="#527483" transform="translate(272,128)"/>
<path d="M0 0 C0.66 0.66 1.32 1.32 2 2 C1.64700993 5.44165321 0.95418308 7.06872538 -1 10 C-1.02689216 8.52093108 -1.04634621 7.04172517 -1.0625 5.5625 C-1.07410156 4.73878906 -1.08570313 3.91507812 -1.09765625 3.06640625 C-1 1 -1 1 0 0 Z " fill="#908BB2" transform="translate(60,122)"/>
<path d="M0 0 C0.66 0.33 1.32 0.66 2 1 C2 1.99 2 2.98 2 4 C0 5.6875 0 5.6875 -2 7 C-2.33 6.34 -2.66 5.68 -3 5 C-3.66 4.67 -4.32 4.34 -5 4 C-4.34 4 -3.68 4 -3 4 C-3 3.34 -3 2.68 -3 2 C-2.01 2 -1.02 2 0 2 C0 1.34 0 0.68 0 0 Z " fill="#317A39" transform="translate(316,94)"/>
<path d="M0 0 C0.625 1.875 0.625 1.875 1 4 C0.34 4.66 -0.32 5.32 -1 6 C-1.66 5.67 -2.32 5.34 -3 5 C-3 5.66 -3 6.32 -3 7 C-3.66 6.67 -4.32 6.34 -5 6 C-3.35 4.02 -1.7 2.04 0 0 Z " fill="#7A7596" transform="translate(87,59)"/>
</svg>
